<?xml version="1.0" standalone="no"?><!DOCTYPE svg PUBLIC "-//W3C//DTD SVG 1.1//EN" "http://www.w3.org/Graphics/SVG/1.1/DTD/svg11.dtd"><svg t="1690277778446" class="icon" viewBox="0 0 1024 1024" version="1.1" xmlns="http://www.w3.org/2000/svg" p-id="3817" xmlns:xlink="http://www.w3.org/1999/xlink" width="200" height="200"><path d="M844.586667 242.773333L530.88 61.546667c-31.36-18.026667-70.293333-18.026667-101.76 0.106666L115.413333 242.773333c-31.36 18.133333-50.88 51.84-50.88 88.106667v362.24c0 36.266667 19.52 69.973333 50.88 88.106667l313.706667 181.226666C444.8 971.413333 462.4 976 480 976s35.2-4.48 50.88-13.546667l313.706667-181.12c31.36-18.133333 50.773333-51.84 50.773333-88.106666V330.88c0.106667-36.266667-19.413333-69.973333-50.773333-88.106667z m-13.12 450.346667c0 13.44-7.146667 25.92-18.773334 32.64L498.88 906.986667c-11.733333 6.72-26.133333 6.72-37.76 0.106666l-313.706667-181.333333c-11.626667-6.72-18.88-19.2-18.88-32.64V330.88c0-13.44 7.253333-25.92 18.88-32.64l313.706667-181.12c5.866667-3.413333 12.373333-5.013333 18.88-5.013333s13.013333 1.706667 18.88 5.013333l313.706667 181.226667c11.626667 6.72 18.773333 19.2 18.773333 32.64v362.133333z" p-id="3818"></path><path d="M715.413333 315.413333l-182.826666-105.6c-32.426667-18.773333-72.64-18.773333-105.173334 0l-182.826666 105.6C212.16 334.08 192 368.96 192 406.4v211.2c0 37.44 20.16 72.426667 52.586667 91.093333l182.826666 105.6c16.213333 9.386667 34.346667 14.08 52.586667 14.08s36.373333-4.693333 52.586667-14.08l182.826666-105.6c32.426667-18.666667 52.586667-53.653333 52.586667-91.093333V406.4c0-37.44-20.16-72.32-52.586667-90.986667z m-256-50.24c6.293333-3.626667 13.44-5.44 20.586667-5.44s14.186667 1.813333 20.586667 5.44L672 364.16l-192 110.933333L286.933333 364.8l172.48-99.626667zM276.586667 653.226667c-12.693333-7.36-20.586667-21.013333-20.586667-35.733334V420.906667l192 109.653333v221.653333l-171.413333-98.986666z m406.826666 0L512 752.213333V530.453333l192-110.933333V617.6c0 14.613333-7.893333 28.266667-20.586667 35.626667z" p-id="3819"></path></svg>