<?xml version="1.0" standalone="no"?><!DOCTYPE svg PUBLIC "-//W3C//DTD SVG 1.1//EN" "http://www.w3.org/Graphics/SVG/1.1/DTD/svg11.dtd"><svg t="1689824800118" class="icon" viewBox="0 0 1024 1024" version="1.1" xmlns="http://www.w3.org/2000/svg" p-id="15585" xmlns:xlink="http://www.w3.org/1999/xlink" width="200" height="200"><path d="M341.333333 608L202.666667 469.333333H298.666667c10.666667-239.36 101.973333-426.666667 213.333333-426.666666 85.333333 0 160.853333 112.64 194.133333 275.2C868.693333 351.146667 981.333333 426.666667 981.333333 512c0 78.08-92.586667 146.346667-230.4 183.466667l12.373334-86.613334C844.8 585.386667 896 550.826667 896 512c0-45.226667-70.4-85.333333-176.213333-106.666667 3.413333 33.706667 5.546667 69.546667 5.546666 106.666667 0 259.413333-95.573333 469.333333-213.333333 469.333333-78.08 0-146.346667-92.586667-183.466667-230.4l86.613334 12.373334C438.613333 844.8 473.173333 896 512 896c70.826667 0 128-171.946667 128-384 0-42.666667-2.133333-83.2-6.4-121.6C595.2 386.133333 554.666667 384 512 384l-79.36 2.56 12.373333-85.76L512 298.666667c37.12 0 72.96 2.133333 106.666667 5.546666C597.333333 198.4 557.226667 128 512 128c-65.706667 0-120.32 149.333333-128 341.333333h96L341.333333 608M608 682.666667L469.333333 821.333333V725.333333c-239.36-10.666667-426.666667-101.973333-426.666666-213.333333 0-78.08 92.586667-146.346667 230.4-183.466667l-12.373334 86.613334C179.2 438.613333 128 473.173333 128 512c0 65.706667 149.333333 120.32 341.333333 128v-96L608 682.666667z" p-id="15586"></path></svg>