<?xml version="1.0" standalone="no"?><!DOCTYPE svg PUBLIC "-//W3C//DTD SVG 1.1//EN" "http://www.w3.org/Graphics/SVG/1.1/DTD/svg11.dtd"><svg t="1692940076438" class="icon" viewBox="0 0 1024 1024" version="1.1" xmlns="http://www.w3.org/2000/svg" p-id="119924" xmlns:xlink="http://www.w3.org/1999/xlink" width="200" height="200"><path d="M988.16 488.96c20.48 0 35.84 15.36 35.84 35.84v386.56c0 20.48-15.36 35.84-35.84 35.84H35.84C15.36 947.2 0 931.84 0 911.36V524.8c0-20.48 15.36-35.84 35.84-35.84h952.32zM179.2 560.64H71.68v314.88h880.64V560.64h-130.56v89.6c0 20.48-15.36 35.84-33.28 35.84s-35.84-12.8-38.4-33.28v-92.16h-120.32v166.4c0 20.48-15.36 35.84-33.28 35.84s-35.84-12.8-38.4-33.28v-168.96h-120.32v89.6c0 20.48-15.36 35.84-33.28 35.84-17.92 0-35.84-12.8-38.4-33.28v-92.16H250.88v140.8c0 20.48-15.36 35.84-33.28 35.84-17.92 0-35.84-12.8-38.4-33.28v-143.36zM988.16 102.4c17.92 0 33.28 15.36 35.84 33.28V307.2c0 20.48-15.36 35.84-33.28 35.84-17.92 0-35.84-12.8-38.4-33.28v-51.2H71.68V307.2c0 20.48-15.36 35.84-33.28 35.84S2.56 330.24 0 312.32V138.24C0 120.32 15.36 102.4 33.28 102.4c17.92 0 35.84 12.8 38.4 33.28v51.2h880.64V138.24c0-20.48 15.36-35.84 35.84-35.84z" p-id="119925"></path></svg>