<?xml version="1.0" standalone="no"?><!DOCTYPE svg PUBLIC "-//W3C//DTD SVG 1.1//EN" "http://www.w3.org/Graphics/SVG/1.1/DTD/svg11.dtd"><svg t="1690882926790" class="icon" viewBox="0 0 1024 1024" version="1.1" xmlns="http://www.w3.org/2000/svg" p-id="44601" xmlns:xlink="http://www.w3.org/1999/xlink" width="200" height="200"><path d="M503.04 257.962667a21.333333 21.333333 0 0 1 17.92 0l213.333333 98.816a21.333333 21.333333 0 0 1 12.373334 19.370666v247.04a21.333333 21.333333 0 0 1-10.666667 18.432l-213.333333 123.52a21.333333 21.333333 0 0 1-21.333334 0l-213.333333-123.52a21.333333 21.333333 0 0 1-10.666667-18.474666v-247.04a21.333333 21.333333 0 0 1 12.373334-19.328l213.333333-98.816zM320 410.709333l170.666667 85.632v213.333334l-170.666667-98.816v-200.106667z m213.333333 298.965334l170.666667-98.816v-200.106667l-170.666667 85.589333v213.333334z m-21.333333-250.368l164.266667-82.389334L512 300.8 347.733333 376.917333 512 459.306667zM106.666667 128a21.333333 21.333333 0 0 1 21.333333-21.333333h128a21.333333 21.333333 0 0 1 0 42.666666H149.333333V256a21.333333 21.333333 0 0 1-42.666666 0V128zM896 106.666667a21.333333 21.333333 0 0 1 21.333333 21.333333v128a21.333333 21.333333 0 0 1-42.666666 0V149.333333H768a21.333333 21.333333 0 0 1 0-42.666666h128zM128 917.333333a21.333333 21.333333 0 0 1-21.333333-21.333333v-128a21.333333 21.333333 0 0 1 42.666666 0v106.666667H256a21.333333 21.333333 0 0 1 0 42.666666H128zM917.333333 896a21.333333 21.333333 0 0 1-21.333333 21.333333h-128a21.333333 21.333333 0 0 1 0-42.666666h106.666667V768a21.333333 21.333333 0 0 1 42.666666 0v128z" p-id="44602"></path></svg>