<?xml version="1.0" standalone="no"?><!DOCTYPE svg PUBLIC "-//W3C//DTD SVG 1.1//EN" "http://www.w3.org/Graphics/SVG/1.1/DTD/svg11.dtd"><svg t="1690453044705" class="icon" viewBox="0 0 1127 1024" version="1.1" xmlns="http://www.w3.org/2000/svg" p-id="10604" xmlns:xlink="http://www.w3.org/1999/xlink" width="220.1171875" height="200"><path d="M242.984316 1022.703921a352.325272 352.325272 0 0 1-116.316567-19.409536A174.052904 174.052904 0 0 1 0.083819 841.407603c-3.164598-113.292618 84.389287-151.900716 152.252338-181.296317 64.768778-29.114304 100.352927-45.288917 100.352927-93.883082 0-58.228608-100.352927-106.822772-142.406921-113.292617a42.194643 42.194643 0 0 1-25.809057-38.819072 32.067929 32.067929 0 0 1 35.654473-25.949706c58.228608 9.704768 197.470931 71.238623 197.470932 178.061395 0 93.883082-77.356846 126.58393-139.242324 152.182014-71.168299 32.349227-116.52754 55.06401-113.292617 122.997385a108.932504 108.932504 0 0 0 80.943391 103.658174 269.694096 269.694096 0 0 0 242.830172-29.184628 32.138253 32.138253 0 1 1 48.52384 42.194643 273.702587 273.702587 0 0 1-194.236008 64.698454zM466.404953 821.998067c-6.54017 6.469845 3.234923 22.644459 16.174613 32.419551s29.114304 12.939691 35.584149 6.469846L654.100792 757.299614 524.633561 663.346208zM1091.237297 15.869405A79.677552 79.677552 0 0 0 977.593058 35.489915L560.006737 612.150041l129.467231 93.883082 420.891568-576.308505a82.420203 82.420203 0 0 0-19.128239-113.855213z" p-id="10605"></path></svg>