<?xml version="1.0" standalone="no"?><!DOCTYPE svg PUBLIC "-//W3C//DTD SVG 1.1//EN" "http://www.w3.org/Graphics/SVG/1.1/DTD/svg11.dtd"><svg t="1690453374635" class="icon" viewBox="0 0 1024 1024" version="1.1" xmlns="http://www.w3.org/2000/svg" p-id="16376" xmlns:xlink="http://www.w3.org/1999/xlink" width="200" height="200"><path d="M761.6 307.2L294.4 774.4c-4.266667 4.266667-10.666667 4.266667-14.933333 0l-104.533334-104.533333c-4.266667-4.266667-4.266667-10.666667 0-14.933334l467.2-469.333333c4.266667-4.266667 10.666667-4.266667 14.933334 0l104.533333 104.533333c4.266667 6.4 4.266667 12.8 0 17.066667zM853.333333 215.466667l-49.066666 49.066666c-4.266667 4.266667-8.533333 4.266667-12.8 0L682.666667 155.733333c-4.266667-4.266667-4.266667-8.533333 0-12.8l49.066666-49.066666c12.8-12.8 32-12.8 44.8 0L853.333333 170.666667c12.8 12.8 12.8 32 0 44.8zM238.933333 812.8l-138.666666 27.733333 32-134.4c2.133333-6.4 6.4-8.533333 12.8-8.533333 2.133333 0 4.266667 2.133333 4.266666 2.133333l93.866667 93.866667c4.266667 4.266667 4.266667 10.666667 0 14.933333 0 2.133333-2.133333 4.266667-4.266667 4.266667zM42.666667 881.066667c55.466667 21.333333 140.8 44.8 213.333333 27.733333 25.6-6.4 142.933333-57.6 170.666667-70.4 125.866667-64 204.8-113.066667 364.8-91.733333 72.533333 8.533333 138.666667 36.266667 168.533333 76.8 38.4 55.466667 6.4 115.2-51.2 108.8-12.8-2.133333-25.6-6.4-42.666667-14.933334-8.533333-4.266667-17.066667-8.533333-25.6-14.933333-42.666667-29.866667-91.733333-49.066667-142.933333-51.2-55.466667-2.133333-160 12.8-226.133333 42.666667-4.266667 2.133333-10.666667 4.266667-21.333334 8.533333-8.533333 4.266667-14.933333 6.4-19.2 8.533333-32 12.8-55.466667 21.333333-76.8 29.866667-55.466667 19.2-85.333333 25.6-123.733333 25.6-57.6 0-123.733333-38.4-187.733333-85.333333z" p-id="16377"></path></svg>