<?xml version="1.0" standalone="no"?><!DOCTYPE svg PUBLIC "-//W3C//DTD SVG 1.1//EN" "http://www.w3.org/Graphics/SVG/1.1/DTD/svg11.dtd"><svg t="1690454340354" class="icon" viewBox="0 0 1024 1024" version="1.1" xmlns="http://www.w3.org/2000/svg" p-id="31817" xmlns:xlink="http://www.w3.org/1999/xlink" width="200" height="200"><path d="M818.24 821.952v-419.2h81.536v451.392c0 55.68-50.112 105.856-111.36 105.856H169.792C114.176 960 64 909.824 64 854.144V235.648c0-61.312 50.176-111.424 105.856-111.424h451.328v81.728H189.312c-27.84 0-50.112 27.84-50.112 55.68v560.32a49.92 49.92 0 0 0 50.112 50.176h573.184c33.472 0 55.744-22.272 55.744-50.176z m120.576-697.728c11.136 11.136 22.272 22.272 11.136 39.04l-16.704 16.64-89.152-89.152 16.64-22.272c11.2-11.136 22.4 0 39.04 16.704l39.04 39.04zM392.768 536.512l417.92-417.92 94.72 89.216-423.488 417.92-11.136 16.64-117.056 27.904 27.904-122.624 11.136-11.136z" fill="#7C7C7C" p-id="31818"></path></svg>