<?xml version="1.0" standalone="no"?><!DOCTYPE svg PUBLIC "-//W3C//DTD SVG 1.1//EN" "http://www.w3.org/Graphics/SVG/1.1/DTD/svg11.dtd"><svg t="1690881592829" class="icon" viewBox="0 0 1024 1024" version="1.1" xmlns="http://www.w3.org/2000/svg" p-id="11965" xmlns:xlink="http://www.w3.org/1999/xlink" width="200" height="200"><path d="M687.328 705.12a91.392 91.392 0 0 0-83.904 54.912h-125.504a55.488 55.488 0 0 1-59.008-58.688v-146.496a139.648 139.648 0 0 0 59.008 12.064h125.504a90.88 90.88 0 1 0 0-71.936h-125.504a55.488 55.488 0 0 1-59.008-58.72v-86.944a91.008 91.008 0 1 0-127.552-83.456 90.88 90.88 0 0 0 55.2 83.456v352a127.264 127.264 0 0 0 131.2 130.624h125.664a91.264 91.264 0 1 0 83.904-126.848z m0-226.592a52.416 52.416 0 1 1-52.704 52.416 52.576 52.576 0 0 1 52.704-52.448zM330.016 265.856z m357.312 582.56a52.416 52.416 0 1 1 52.704-52.448 52.576 52.576 0 0 1-52.704 52.448z" fill="#61676E" p-id="11966"></path></svg>