<?xml version="1.0" standalone="no"?><!DOCTYPE svg PUBLIC "-//W3C//DTD SVG 1.1//EN" "http://www.w3.org/Graphics/SVG/1.1/DTD/svg11.dtd"><svg t="1691674552590" class="icon" viewBox="0 0 1024 1024" version="1.1" xmlns="http://www.w3.org/2000/svg" p-id="10315" xmlns:xlink="http://www.w3.org/1999/xlink" width="200" height="200"><path d="M512 213.333333c154.24 0 289.365333 109.653333 364.330667 197.418667l11.946666 14.378667 5.504 7.04 10.154667 13.525333 8.96 12.8c16.64 24.746667 25.770667 44.202667 25.770667 53.504 0 6.997333-5.12 19.669333-14.72 36.010667l-7.04 11.434666c-1.28 2.005333-2.602667 4.010667-4.010667 6.058667l-8.96 12.8-10.154667 13.525333-5.546666 7.04-11.946667 14.378667C801.408 700.970667 666.282667 810.666667 512 810.666667c-141.397333 0-266.709333-92.16-344.32-175.104l-13.610667-14.933334a643.84 643.84 0 0 1-6.4-7.381333l-11.946666-14.378667-5.504-7.04-10.154667-13.525333-8.96-12.8a378.965333 378.965333 0 0 1-4.010667-6.058667l-7.04-11.434666C90.453333 531.669333 85.333333 518.997333 85.333333 512c0-9.301333 9.088-28.757333 25.770667-53.504l8.96-12.8 10.154667-13.525333 5.546666-7.04 11.946667-14.378667C222.592 323.029333 357.717333 213.333333 512 213.333333z m0 85.333334c-80.853333 0-166.741333 41.514667-244.693333 111.488a564.608 564.608 0 0 0-79.189334 87.04l-4.693333 6.613333-5.418667 8.149333 5.461334 8.234667 4.693333 6.613333a564.608 564.608 0 0 0 79.146667 87.04C345.258667 683.818667 431.146667 725.333333 512 725.333333c80.853333 0 166.741333-41.514667 244.693333-111.488a564.608 564.608 0 0 0 79.189334-87.04l4.693333-6.613333 5.376-8.234667-5.418667-8.106666-4.693333-6.656a564.608 564.608 0 0 0-79.146667-87.04C678.741333 340.181333 592.853333 298.666667 512 298.666667z m0 85.333333a128 128 0 1 1 0 256 128 128 0 0 1 0-256z" fill="#979797" p-id="10316"></path></svg>