<?xml version="1.0" standalone="no"?><!DOCTYPE svg PUBLIC "-//W3C//DTD SVG 1.1//EN" "http://www.w3.org/Graphics/SVG/1.1/DTD/svg11.dtd"><svg t="1690884054733" class="icon" viewBox="0 0 1024 1024" version="1.1" xmlns="http://www.w3.org/2000/svg" p-id="74949" xmlns:xlink="http://www.w3.org/1999/xlink" width="200" height="200"><path d="M11.0592 312.2688c-0.256-6.4 0.768-17.4592 9.472-17.3056 40.8576-1.3824 81.8176-0.2048 122.7264-0.512 42.4448 0 87.9616 11.5712 117.6064 43.8272 32.0512 35.5328 37.7344 87.9104 27.7504 133.12-11.0592 48.8448-51.4048 87.6032-98.6112 102.0928-34.8672 11.3664-71.9872 6.7584-107.9808 7.5776-0.1536 43.6224-0.2048 87.1936 0.0512 130.7648-0.1536 7.7312 1.1776 16.8448-6.0928 22.016-18.4832 1.536-37.1712 1.4848-55.7056 0.3072-8.5504-0.1536-9.4208-10.9056-9.216-17.2032 0.2048-134.912 0.2048-269.7728 0-404.6848M81.92 361.0112v153.4976c33.1264-0.7168 68.352 3.84 99.2256-10.9568 44.1344-20.4288 50.688-86.9376 19.968-121.1904-32.6144-28.3648-79.4112-19.8656-119.1936-21.3504zM374.5792 312.1664c-0.2048-6.3488 0.7168-17.152 9.3184-17.2032 26.0608-1.5872 52.224-0.0512 78.336-0.5632 46.8992 109.4144 95.5392 218.112 141.056 328.0896 45.6192-110.2336 95.5904-218.624 143.104-328.0896 24.2176 0.256 48.4864-0.512 72.704 0.1536 9.1136-0.7168 12.544 10.2912 11.4176 17.6128-0.2048 134.9632-0.1536 269.9264-0.0512 404.8896 1.0752 7.1168-1.2288 12.8-6.8608 17.0496-18.6368 1.1776-37.4272 1.0752-56.064 0.1536-9.1648-4.2496-7.6288-14.2848-7.68-22.528 0.6656-98.7136-0.6656-197.4272 0.7168-296.1408-45.9264 106.2912-91.8016 212.6336-137.472 319.0272-13.7216 0.0512-27.4432 0.1536-41.1648 0.1536-46.6432-106.8032-92.7744-213.8112-139.4688-320.512 0.9728 99.1232 0 198.2464 0.5632 297.4208-0.1024 8.192 1.4848 18.2784-7.6288 22.528-17.152 0.9728-34.4064 1.1264-51.5584-0.0512-8.6016-0.1024-9.4208-10.8544-9.2672-17.152 0.2048-134.9632 0.2048-269.8752 0-404.8384zM942.7968 296.192c16.5376-3.7376 33.8432-1.4336 50.688-1.6896 7.8336-1.8432 15.7184 4.096 15.0528 12.3904 0.3072 136.8064-0.1024 273.664 0.2048 410.4704 0.8192 6.5024-1.1264 11.9808-5.7856 16.384-18.5856 1.792-37.376 1.536-56.0128 0.4096-8.3456-0.768-9.0112-10.9568-8.8576-17.3056 0.256-134.912 0.2048-269.824 0-404.736-0.7168-6.0416 0.8704-11.3664 4.7104-15.9232z" fill="#333333" p-id="74950"></path></svg>