<?xml version="1.0" standalone="no"?><!DOCTYPE svg PUBLIC "-//W3C//DTD SVG 1.1//EN" "http://www.w3.org/Graphics/SVG/1.1/DTD/svg11.dtd"><svg t="1690883980052" class="icon" viewBox="0 0 1024 1024" version="1.1" xmlns="http://www.w3.org/2000/svg" p-id="71852" xmlns:xlink="http://www.w3.org/1999/xlink" width="200" height="200"><path d="M819.2 153.6a51.2 51.2 0 0 1 51.2 51.2v614.4a51.2 51.2 0 0 1-51.2 51.2H204.8a51.2 51.2 0 0 1-51.2-51.2V204.8a51.2 51.2 0 0 1 51.2-51.2h614.4z m0 51.2H204.8v614.4h614.4V204.8z m-102.4 435.2a25.6 25.6 0 0 1 4.608 50.7904L716.8 691.2H409.6a25.6 25.6 0 0 1-4.608-50.7904L409.6 640h307.2z m-409.6 0a25.6 25.6 0 1 1 0 51.2 25.6 25.6 0 0 1 0-51.2z m409.6-153.6a25.6 25.6 0 0 1 4.608 50.7904L716.8 537.6H409.6a25.6 25.6 0 0 1-4.608-50.7904L409.6 486.4h307.2z m-409.6 0a25.6 25.6 0 1 1 0 51.2 25.6 25.6 0 0 1 0-51.2z m409.6-153.6a25.6 25.6 0 0 1 4.608 50.7904L716.8 384H409.6a25.6 25.6 0 0 1-4.608-50.7904L409.6 332.8h307.2z m-409.6 0a25.6 25.6 0 1 1 0 51.2 25.6 25.6 0 0 1 0-51.2z" fill="#6D7B98" p-id="71853"></path></svg>