<?xml version="1.0" standalone="no"?><!DOCTYPE svg PUBLIC "-//W3C//DTD SVG 1.1//EN" "http://www.w3.org/Graphics/SVG/1.1/DTD/svg11.dtd"><svg t="1690883970148" class="icon" viewBox="0 0 1024 1024" version="1.1" xmlns="http://www.w3.org/2000/svg" p-id="71714" xmlns:xlink="http://www.w3.org/1999/xlink" width="200" height="200"><path d="M389.162667 303.829333Q410.581333 282.453333 419.754667 256H938.666667a42.666667 42.666667 0 1 0 0-85.333333H419.754667q-9.173333-26.453333-30.592-47.829334Q351.701333 85.333333 298.666667 85.333333q-53.034667 0-90.496 37.504Q186.752 144.213333 177.578667 170.666667H85.333333a42.666667 42.666667 0 0 0 0 85.333333h92.245334q9.173333 26.453333 30.592 47.829333Q245.632 341.333333 298.666667 341.333333q53.034667 0 90.496-37.504zM328.832 183.168Q341.333333 195.669333 341.333333 213.333333t-12.501333 30.165334Q316.330667 256 298.666667 256t-30.165334-12.501333Q256 230.997333 256 213.333333t12.501333-30.165333Q281.002667 170.666667 298.666667 170.666667t30.165333 12.501333zM846.421333 554.666667q-9.173333 26.453333-30.592 47.829333Q778.368 640 725.333333 640q-53.034667 0-90.496-37.504-21.418667-21.376-30.592-47.829333H85.333333a42.666667 42.666667 0 1 1 0-85.333334h518.912q9.173333-26.453333 30.592-47.829333Q672.298667 384 725.333333 384q53.034667 0 90.496 37.504 21.418667 21.376 30.592 47.829333H938.666667a42.666667 42.666667 0 1 1 0 85.333334h-92.245334zM768 512q0-17.664-12.501333-30.165333T725.333333 469.333333q-17.664 0-30.165333 12.501334T682.666667 512v0.085333q0 17.621333 12.501333 30.08 12.501333 12.501333 30.165333 12.501334t30.165334-12.501334Q768 529.664 768 512z m-348.245333 341.333333q-9.173333 26.453333-30.592 47.829334Q351.701333 938.666667 298.666667 938.666667q-53.034667 0-90.496-37.504-21.418667-21.376-30.592-47.829334H85.333333a42.666667 42.666667 0 1 1 0-85.333333h92.245334q9.173333-26.453333 30.592-47.829333Q245.632 682.666667 298.666667 682.666667q53.034667 0 90.496 37.504 21.418667 21.376 30.592 47.829333H938.666667a42.666667 42.666667 0 1 1 0 85.333333H419.754667zM341.333333 810.666667q0-17.664-12.501333-30.165334T298.666667 768q-17.664 0-30.165334 12.501333T256 810.666667q0 17.664 12.501333 30.165333T298.666667 853.333333q17.664 0 30.165333-12.501333T341.333333 810.666667z" p-id="71715"></path></svg>