<?xml version="1.0" standalone="no"?><!DOCTYPE svg PUBLIC "-//W3C//DTD SVG 1.1//EN" "http://www.w3.org/Graphics/SVG/1.1/DTD/svg11.dtd"><svg t="1690882247397" class="icon" viewBox="0 0 1024 1024" version="1.1" xmlns="http://www.w3.org/2000/svg" p-id="35606" xmlns:xlink="http://www.w3.org/1999/xlink" width="200" height="200"><path d="M511.317333 321.024c-116.224 0-206.506667 70.4-317.696 185.258667 95.573333 97.706667 175.786667 185.344 317.696 185.344 141.994667 0 246.016-110.336 317.781334-182.613334-73.386667-85.077333-177.664-186.965333-317.781334-186.965333m0 317.696a129.706667 129.706667 0 0 1-127.061333-132.352 129.706667 129.706667 0 0 1 127.146667-132.437333 129.706667 129.706667 0 0 1 127.061333 132.437333 129.706667 129.706667 0 0 1-127.146667 132.352" fill="#000000" fill-opacity="1" p-id="35607"></path><path d="M511.317333 459.690667a46.933333 46.933333 0 0 1 10.922667-30.122667 59.306667 59.306667 0 0 0-10.922667 0 77.056 77.056 0 1 0 74.24 77.056v-10.069333a44.970667 44.970667 0 0 1-73.642666-36.266667M739.328 85.333333v79.36h119.125333v119.210667h79.445334V85.333333H739.328zM85.333333 283.904h79.36V164.778667h119.210667V85.333333H85.333333v198.570667z m79.36 450.389333H85.333333v198.570667h198.570667v-79.36H164.778667V734.208z m693.76 119.125334H739.328v79.445333h198.570667V734.293333h-79.36v119.125334z" fill="#000000" fill-opacity="1" p-id="35608"></path></svg>