<?xml version="1.0" standalone="no"?><!DOCTYPE svg PUBLIC "-//W3C//DTD SVG 1.1//EN" "http://www.w3.org/Graphics/SVG/1.1/DTD/svg11.dtd"><svg t="1690882368111" class="icon" viewBox="0 0 1024 1024" version="1.1" xmlns="http://www.w3.org/2000/svg" p-id="44461" xmlns:xlink="http://www.w3.org/1999/xlink" width="200" height="200"><path d="M510.9 239h447.3c46.2 0 58.1 11.9 58.1 58.1v662.5c0 44.8-12.1 56.9-57.1 56.9H62.6c-43.4 0-54.9-11.4-54.9-53.9V291.7c0-41 11.9-52.7 53.9-52.7h449.3z m425.7 78.8h-19.3c-269.5 0-538.9 0.2-808.4-0.5-21-0.1-25.2 6.9-25.2 26.2 0.6 189.4 0.7 378.8-0.1 568.2-0.1 21.2 5.4 26.7 26.7 26.6 270.9-0.7 541.7-0.5 812.6-0.5 4.6 0 9.2-0.8 13.8-1.3-0.1-206.4-0.1-411.5-0.1-618.7zM513.7 123.9H877c5.6 0 11.1-0.1 16.7 0 27.9 0.9 45 16.2 44.2 39.5-0.8 22.8-17.1 37.2-44.2 37.3-97.4 0.3-194.9 0.1-292.3 0.1H146.2c-5.6 0-11.1 0.1-16.7 0-27.1-0.8-43.4-14.7-44.2-37.4-0.7-23.3 16.3-39.3 44.2-39.4 128-0.3 256.1-0.1 384.2-0.1zM511.7 84.6c-87 0-174.1 0.7-261.1-0.7-13.8-0.2-31.6-5.9-40.4-15.6-19.5-21.5-4.7-54.7 24.5-60.1 6.8-1.2 13.9-0.8 20.8-0.8h511.7c35.7 0 53.9 12.7 54.5 38 0.6 25.9-18 39.2-55.3 39.2H511.7z" p-id="44462"></path></svg>