<?xml version="1.0" standalone="no"?><!DOCTYPE svg PUBLIC "-//W3C//DTD SVG 1.1//EN" "http://www.w3.org/Graphics/SVG/1.1/DTD/svg11.dtd"><svg t="1690192580073" class="icon" viewBox="0 0 1024 1024" version="1.1" xmlns="http://www.w3.org/2000/svg" p-id="27549" xmlns:xlink="http://www.w3.org/1999/xlink" width="200" height="200"><path d="M86.204044 482.583273H915.085498v-149.876364h-319.348363c-17.314909 0-31.371636-14.708364-31.371637-32.814545V108.962909a42.589091 42.589091 0 0 0-42.542545-43.52H479.420044c-23.784727 0-42.402909 19.083636-42.402909 43.52v191.022546a32.861091 32.861091 0 0 1-9.309091 23.179636 31.138909 31.138909 0 0 1-22.202182 9.495273h-319.301818l-0.046546 149.922909z m604.858181 190.650182c5.678545 0 11.170909 1.582545 16.104728 4.561454a33.047273 33.047273 0 0 1 15.36 29.649455v209.594181h142.196363l-1.861818-10.84509a802.536727 802.536727 0 0 1-11.310545-131.909819v-226.164363H149.645498v226.210909a798.580364 798.580364 0 0 1-11.403636 131.863273l-1.861818 10.84509h142.196363v-209.221818a33.047273 33.047273 0 0 1 15.825455-28.392727 29.789091 29.789091 0 0 1 31.325091 0 33.093818 33.093818 0 0 1 15.778909 28.392727v209.221818h127.627636v-209.221818a32.116364 32.116364 0 0 1 31.418182-32.674909c17.361455 0 31.511273 14.661818 31.511273 32.674909v209.221818h127.534545v-209.221818a33.652364 33.652364 0 0 1 15.36-30.021818 30.999273 30.999273 0 0 1 16.104727-4.561454zM97.002589 982.481455a31.045818 31.045818 0 0 1-24.948364-12.939637 33.559273 33.559273 0 0 1-5.352727-28.672c13.032727-54.690909 19.781818-110.638545 20.014546-166.632727v-226.210909h-9.309091A53.946182 53.946182 0 0 1 23.274589 493.381818V321.768727C23.274589 291.700364 46.91968 267.170909 75.964044 267.170909h298.123636V108.962909C374.08768 48.919273 421.377862 0 479.513135 0h42.309818c58.135273 0 105.472 48.872727 105.472 108.962909v158.254546h297.984c28.997818 0 52.596364 24.482909 52.689454 54.458181v171.845819c0 30.114909-23.598545 54.597818-52.642909 54.597818h-9.309091l-1.442909 9.309091v216.715636c0 83.130182 16.384 152.855273 19.688727 166.027636a33.978182 33.978182 0 0 1-5.026909 29.463273 31.138909 31.138909 0 0 1-24.901818 12.846546H97.002589z" fill="#F66134" p-id="27550"></path></svg>