<?xml version="1.0" standalone="no"?><!DOCTYPE svg PUBLIC "-//W3C//DTD SVG 1.1//EN" "http://www.w3.org/Graphics/SVG/1.1/DTD/svg11.dtd"><svg t="1690032855807" class="icon" viewBox="0 0 1024 1024" version="1.1" xmlns="http://www.w3.org/2000/svg" p-id="8579" xmlns:xlink="http://www.w3.org/1999/xlink" width="200" height="200"><path d="M584.791852 2.947138l391.756429 192.349896a29.607745 29.607745 0 0 1 16.586867 27.259718l-0.13812 2.385696c0.087894 0.853828 0.125563 1.707656 0.13812 2.511259v387.072931l-0.326464 3.402756a30.838262 30.838262 0 0 1-16.260403 32.784488l-266.193471 130.585477v208.43451a30.13511 30.13511 0 0 1-43.017869 31.114501l-267.82579-132.192682a30.13511 30.13511 0 0 1-4.244028-1.682544l-347.809393-171.770127A30.348567 30.348567 0 0 1 30.933645 684.214079V49.003631l0.188344-2.310358a30.13511 30.13511 0 0 1 11.915925-28.728805 30.13511 30.13511 0 0 1 30.963825-2.837723l227.52008 112.378848 257.404064-124.596123a30.310898 30.310898 0 0 1 25.916194 0z m-352.492892 157.958202L90.475599 90.828653h-0.062781V668.782392l251.678393 124.307328a29.770977 29.770977 0 0 1 4.118465 1.607206l304.665961 150.524874V363.300271m59.529398 167.38798V711.599361l184.577548-90.40533zM933.492743 270.835709l-223.075151 109.239774v83.122678L933.492743 572.802067zM597.523936 76.690264l2.247577 197.749102 94.172218 46.60897 201.164415-98.428803L597.385817 76.753045z m-60.044206 3.854782l-166.898284 80.561194L539.225055 244.542826l-1.883445-164.060561z m0 0" p-id="8580"></path></svg>