<?xml version="1.0" standalone="no"?><!DOCTYPE svg PUBLIC "-//W3C//DTD SVG 1.1//EN" "http://www.w3.org/Graphics/SVG/1.1/DTD/svg11.dtd"><svg t="1690449267801" class="icon" viewBox="0 0 1024 1024" version="1.1" xmlns="http://www.w3.org/2000/svg" p-id="6394" xmlns:xlink="http://www.w3.org/1999/xlink" width="200" height="200"><path d="M768 426.666667H341.333333V298.666667c0-93.866667 76.8-170.666667 170.666667-170.666667 81.066667 0 149.333333 55.466667 166.4 136.533333 4.266667 21.333333 25.6 38.4 51.2 34.133334s38.4-25.6 34.133333-46.933334v-4.266666c-29.866667-136.533333-162.133333-226.133333-302.933333-200.533334C341.333333 72.533333 256 179.2 256 298.666667v128c-72.533333 0-128 55.466667-128 128v298.666666c0 72.533333 55.466667 128 128 128h512c72.533333 0 128-55.466667 128-128v-298.666666c0-72.533333-55.466667-128-128-128z m42.666667 426.666666c0 25.6-17.066667 42.666667-42.666667 42.666667H256c-25.6 0-42.666667-17.066667-42.666667-42.666667v-298.666666c0-25.6 17.066667-42.666667 42.666667-42.666667h512c25.6 0 42.666667 17.066667 42.666667 42.666667v298.666666z" p-id="6395"></path></svg>