<?xml version="1.0" standalone="no"?><!DOCTYPE svg PUBLIC "-//W3C//DTD SVG 1.1//EN" "http://www.w3.org/Graphics/SVG/1.1/DTD/svg11.dtd"><svg t="1690181779552" class="icon" viewBox="0 0 1024 1024" version="1.1" xmlns="http://www.w3.org/2000/svg" p-id="6703" xmlns:xlink="http://www.w3.org/1999/xlink" width="200" height="200"><path d="M704 80a48 48 0 0 1 6.528 95.552L704 176H112v544h146.624a48 48 0 0 1 47.552 41.472l0.448 6.528v50.368l187.136-93.312a48 48 0 0 1 14.08-4.48l7.296-0.576H912V386.368a48 48 0 0 1 41.472-47.552l6.528-0.448a48 48 0 0 1 47.552 41.536l0.448 6.464V736a80 80 0 0 1-71.808 79.616L928 816H526.464l-246.4 122.944a48 48 0 0 1-68.992-36.416L210.56 896v-80H96a80 80 0 0 1-79.616-71.808L16 736V160c0-41.408 31.488-75.52 71.808-79.616L96 80h608zM512 473.856a48 48 0 0 1 6.528 95.552l-6.528 0.448H223.232a48 48 0 0 1-6.528-95.616l6.528-0.384H512zM993.792 93.888a48 48 0 0 1 4.928 62.464l-4.608 5.44-320 323.328a48 48 0 0 1-72.832-62.08l4.608-5.44 320-323.392a48 48 0 0 1 67.84-0.32zM423.68 272a48 48 0 0 1 6.528 95.552l-6.528 0.448H223.232a48 48 0 0 1-6.528-95.552l6.528-0.448H423.68z" p-id="6704"></path></svg>