<?xml version="1.0" standalone="no"?><!DOCTYPE svg PUBLIC "-//W3C//DTD SVG 1.1//EN" "http://www.w3.org/Graphics/SVG/1.1/DTD/svg11.dtd"><svg t="1690033537590" class="icon" viewBox="0 0 1024 1024" version="1.1" xmlns="http://www.w3.org/2000/svg" p-id="49369" xmlns:xlink="http://www.w3.org/1999/xlink" width="200" height="200"><path d="M960 512l-128-96v64h-128V128c0-12.8-6.4-25.6-19.2-28.8s-25.6-3.2-35.2 6.4l-288 256c-6.4 6.4-9.6 12.8-9.6 22.4v512c0 12.8 6.4 25.6 19.2 28.8s25.6 3.2 35.2-6.4l288-256c6.4-6.4 9.6-12.8 9.6-22.4v-96h128v64l128-96z m-320-32h-160v64h160v83.2l-224 192V396.8l224-192V480zM64 480h224v64H64z" p-id="49370"></path></svg>