<?xml version="1.0" standalone="no"?><!DOCTYPE svg PUBLIC "-//W3C//DTD SVG 1.1//EN" "http://www.w3.org/Graphics/SVG/1.1/DTD/svg11.dtd"><svg t="1690281652840" class="icon" viewBox="0 0 1024 1024" version="1.1" xmlns="http://www.w3.org/2000/svg" p-id="4441" xmlns:xlink="http://www.w3.org/1999/xlink" width="200" height="200"><path d="M908.8 793.6l-21.333333-38.4 25.6-12.8v-34.133333h42.666666v55.466666zM597.333333 972.8l-21.333333-38.4 68.266667-38.4 21.333333 38.4-68.266667 38.4z m106.666667-59.733333l-21.333333-38.4 68.266666-38.4 21.333334 38.4-68.266667 38.4z m102.4-59.733334l-21.333333-38.4 68.266666-38.4 21.333334 38.4-68.266667 38.4zM516.266667 1019.733333l-46.933334-25.6 21.333334-38.4 25.6 12.8 25.6-12.8 21.333333 38.4zM435.2 972.8l-68.266667-38.4 17.066667-38.4 68.266667 38.4-17.066667 38.4z m-106.666667-59.733333l-68.266666-38.4 21.333333-38.4 68.266667 38.4-21.333334 38.4zM226.133333 853.333333l-68.266666-42.666666 21.333333-38.4 68.266667 38.4-21.333334 42.666666zM123.733333 793.6l-46.933333-29.866667v-55.466666h42.666667v34.133333l25.6 12.8zM119.466667 669.866667h-42.666667v-81.066667h42.666667v81.066667z m0-119.466667h-42.666667V469.333333h42.666667v81.066667z m0-119.466667h-42.666667V349.866667h42.666667v81.066666zM119.466667 311.466667h-42.666667V256l46.933333-29.866667 21.333334 38.4-25.6 17.066667zM179.2 243.2l-21.333333-34.133333L226.133333 170.666667l21.333334 38.4-68.266667 34.133333z m102.4-59.733333l-21.333333-34.133334 68.266666-38.4 21.333334 38.4-68.266667 34.133334zM384 123.733333l-21.333333-34.133333 68.266666-38.4 25.6 34.133333-72.533333 38.4zM490.666667 64L469.333333 29.866667l46.933334-29.866667 46.933333 29.866667-21.333333 34.133333-25.6-12.8zM853.333333 243.2l-68.266666-38.4 21.333333-38.4 68.266667 38.4-21.333334 38.4z m-102.4-59.733333L682.666667 145.066667l21.333333-38.4 68.266667 38.4-21.333334 38.4z m-106.666666-59.733334L576 85.333333l21.333333-38.4 68.266667 38.4-21.333333 38.4zM955.733333 311.466667h-42.666666v-29.866667l-25.6-17.066667 21.333333-38.4 46.933333 29.866667zM955.733333 669.866667h-42.666666v-81.066667h42.666666v81.066667z m0-119.466667h-42.666666V469.333333h42.666666v81.066667z m0-119.466667h-42.666666V349.866667h42.666666v81.066666z" fill="#323333" p-id="4442"></path><path d="M494.933333 507.733333h42.666667v251.733334h-42.666667z" fill="#323333" p-id="4443"></path><path d="M494.933333 759.466667h42.666667v102.4h-42.666667z" fill="#323333" p-id="4444"></path><path d="M494.933333 878.933333h42.666667v106.666667h-42.666667z" fill="#323333" p-id="4445"></path><path d="M292.906667 410.154667l21.333333-36.949334 217.984 125.866667-21.333333 36.949333z" fill="#323333" p-id="4446"></path><path d="M208.213333 357.248l21.290667-36.992 88.704 51.2-21.333333 36.906667z" fill="#323333" p-id="4447"></path><path d="M95.786667 295.168l21.333333-36.949333 92.373333 53.333333-21.333333 36.949333z" fill="#323333" p-id="4448"></path><path d="M492.970667 506.069333l218.026666-125.866666 21.333334 36.949333-218.026667 125.866667z" fill="#323333" p-id="4449"></path><path d="M829.098667 313.344L917.76 261.973333l21.376 36.949334-88.618667 51.328z" fill="#323333" p-id="4450"></path><path d="M691.754667 390.912l92.288-53.461333 21.376 36.906666-92.288 53.461334z" fill="#323333" p-id="4451"></path><path d="M516.266667 797.866667l-247.466667-140.8V371.2l247.466667-140.8 247.466666 140.8v285.866667l-247.466666 140.8z m-204.8-166.4l204.8 119.466666 204.8-119.466666V392.533333l-204.8-119.466666-204.8 119.466666v238.933334z" fill="#323333" p-id="4452"></path></svg>