<?xml version="1.0" standalone="no"?><!DOCTYPE svg PUBLIC "-//W3C//DTD SVG 1.1//EN" "http://www.w3.org/Graphics/SVG/1.1/DTD/svg11.dtd"><svg t="1690449330105" class="icon" viewBox="0 0 1024 1024" version="1.1" xmlns="http://www.w3.org/2000/svg" p-id="6672" xmlns:xlink="http://www.w3.org/1999/xlink" width="200" height="200"><path d="M768 426.666667V298.666667c0-140.8-115.2-256-256-256S256 157.866667 256 298.666667v128c-72.533333 0-128 55.466667-128 128v298.666666c0 72.533333 55.466667 128 128 128h512c72.533333 0 128-55.466667 128-128v-298.666666c0-72.533333-55.466667-128-128-128zM341.333333 298.666667c0-93.866667 76.8-170.666667 170.666667-170.666667s170.666667 76.8 170.666667 170.666667v128H341.333333V298.666667z m469.333334 554.666666c0 25.6-17.066667 42.666667-42.666667 42.666667H256c-25.6 0-42.666667-17.066667-42.666667-42.666667v-298.666666c0-25.6 17.066667-42.666667 42.666667-42.666667h512c25.6 0 42.666667 17.066667 42.666667 42.666667v298.666666z" p-id="6673"></path></svg>