<?xml version="1.0" standalone="no"?><!DOCTYPE svg PUBLIC "-//W3C//DTD SVG 1.1//EN" "http://www.w3.org/Graphics/SVG/1.1/DTD/svg11.dtd"><svg t="1690883853563" class="icon" viewBox="0 0 1024 1024" version="1.1" xmlns="http://www.w3.org/2000/svg" p-id="65235" xmlns:xlink="http://www.w3.org/1999/xlink" width="200" height="200"><path d="M256.024998 704.031247h63.99375v63.993751h-63.99375z" p-id="65236"></path><path d="M351.115711 0h-90.491163L256.024998 4.599551 4.449565 256.174983l-4.29958 4.29958v763.025486h676.433942l90.991114 0.499951 0.499952-0.499951 255.575041-255.575042 0.199981-0.19998V0H351.115711z m-63.99375 63.993751h627.638707L721.179572 256.174983H320.018748v-25.997461h-63.99375v25.997461H94.940728L287.121961 63.993751z m416.45933 895.612537H76.842496L64.043746 946.807538V320.068743h639.537545v639.537545z m63.89376-25.997461V768.024998h0.599942v-63.993751h-0.599942V300.270677l192.381213-190.88136v594.54194h-38.19627v63.99375h11.498877L768.074993 933.008886l-0.599942 0.599941z" p-id="65237"></path><path d="M256.024998 111.689093h63.99375v63.99375h-63.99375zM256.024998 348.56596h63.99375v63.993751h-63.99375zM256.024998 467.054389h63.99375v63.993751h-63.99375zM256.024998 585.542818h63.99375v63.993751h-63.99375zM369.813885 704.031247h63.993751v63.993751h-63.993751zM82.705923 895.837516l45.249581-45.249581 45.249581 45.249581-45.249581 45.249581zM163.968987 814.59045l45.249581-45.250581 45.250581 45.250581-45.250581 45.249581zM483.602773 704.031247h63.993751v63.993751h-63.993751zM597.391661 704.031247h63.993751v63.993751h-63.993751zM805.37135 704.031247h63.993751v63.993751h-63.993751z" p-id="65238"></path></svg>