<?xml version="1.0" standalone="no"?><!DOCTYPE svg PUBLIC "-//W3C//DTD SVG 1.1//EN" "http://www.w3.org/Graphics/SVG/1.1/DTD/svg11.dtd"><svg t="1690786510042" class="icon" viewBox="0 0 1024 1024" version="1.1" xmlns="http://www.w3.org/2000/svg" p-id="21559" xmlns:xlink="http://www.w3.org/1999/xlink" width="200" height="200"><path d="M957.44 879.104a465.237333 465.237333 0 0 0-412.842667-332.458667V345.685333H677.546667a33.28 33.28 0 0 0 33.28-33.28V179.456a33.28 33.28 0 0 0-33.28-33.28H345.088a33.28 33.28 0 0 0-33.28 33.28V312.32c0 18.346667 14.933333 33.28 33.28 33.28h132.949333v200.96a465.237333 465.237333 0 0 0-413.013333 332.458667 66.56 66.56 0 1 0 80.554667 65.024c0-17.066667-6.656-32.597333-17.237334-44.373334a398.933333 398.933333 0 0 1 349.696-286.549333v273.664a66.218667 66.218667 0 0 0 33.28 123.733333 66.304 66.304 0 1 0 33.28-123.733333V613.205333a398.848 398.848 0 0 1 349.696 286.634667 65.877333 65.877333 0 0 0 2.218667 91.306667 66.56 66.56 0 0 0 46.933333 19.456 66.474667 66.474667 0 1 0 13.994667-131.413334zM278.613333 478.72h80.469334a33.28 33.28 0 1 0 0-66.474667h-80.469334a33.28 33.28 0 0 1-33.28-33.28V112.981333a33.28 33.28 0 0 1 33.28-33.28h465.408a33.28 33.28 0 0 1 33.28 33.28V378.88a33.28 33.28 0 0 1-33.28 33.28H649.898667a33.28 33.28 0 1 0 0 66.56h94.122666c55.125333 0 99.754667-44.714667 99.754667-99.84V112.981333c0-55.125333-44.629333-99.84-99.754667-99.84H278.613333c-55.125333 0-99.754667 44.714667-99.754666 99.84V378.88c0 55.125333 44.629333 99.84 99.754666 99.84z" fill="#8C8C8C" p-id="21560"></path></svg>