<?xml version="1.0" standalone="no"?><!DOCTYPE svg PUBLIC "-//W3C//DTD SVG 1.1//EN" "http://www.w3.org/Graphics/SVG/1.1/DTD/svg11.dtd"><svg t="1690077646008" class="icon" viewBox="0 0 1024 1024" version="1.1" xmlns="http://www.w3.org/2000/svg" p-id="56723" xmlns:xlink="http://www.w3.org/1999/xlink" width="200" height="200"><path d="M955.733333 443.733333h-273.066666V341.333333a34.133333 34.133333 0 0 0-34.133334-34.133333H546.133333v-273.066667a34.133333 34.133333 0 0 0-68.266666 0v273.066667H375.466667a34.133333 34.133333 0 0 0-34.133334 34.133333v102.4h-273.066666a34.133333 34.133333 0 0 0 0 68.266667h273.066666V614.4a34.133333 34.133333 0 0 0 34.133334 34.133333h102.4v341.333334a34.133333 34.133333 0 0 0 68.266666 0v-341.333334H648.533333a34.133333 34.133333 0 0 0 34.133334-34.133333V512h273.066666a34.133333 34.133333 0 0 0 0-68.266667z m-341.333333 136.533334h-204.8v-204.8h204.8z" fill="#333333" p-id="56724"></path></svg>