<?xml version="1.0" standalone="no"?><!DOCTYPE svg PUBLIC "-//W3C//DTD SVG 1.1//EN" "http://www.w3.org/Graphics/SVG/1.1/DTD/svg11.dtd"><svg t="1690281690849" class="icon" viewBox="0 0 1024 1024" version="1.1" xmlns="http://www.w3.org/2000/svg" p-id="5683" xmlns:xlink="http://www.w3.org/1999/xlink" width="200" height="200"><path d="M195.765 682.767v160.467h161.069v45.176H150.588V682.767h45.177z m693.218 0V888.41H682.767v-45.176h161.04V682.767h45.176zM521.186 246.453l235.73 137.095v274.974l-235.73 138.06-235.73-138.03V383.548l235.73-137.095zM711.74 436.284l-167.996 98.184v196.517l167.996-98.334V436.284z m-381.108-0.21V632.65l167.936 98.304V534.438L394.933 473.69l-9.909-5.782-8.343-4.91-46.08-26.925z m190.554-137.367l-168.448 97.942 46.773 27.377 8.342 4.91 9.909 5.782 103.424 60.627 168.659-98.575-168.66-98.063zM356.834 150.588v45.177h-161.07V356.2h-45.176V150.588h206.246z m532.179 0v205.613h-45.177V195.765H682.767v-45.177h206.216z" fill="#3E7DE4" p-id="5684"></path></svg>