<?xml version="1.0" standalone="no"?><!DOCTYPE svg PUBLIC "-//W3C//DTD SVG 1.1//EN" "http://www.w3.org/Graphics/SVG/1.1/DTD/svg11.dtd"><svg t="1690700083915" class="icon" viewBox="0 0 1024 1024" version="1.1" xmlns="http://www.w3.org/2000/svg" p-id="1454" xmlns:xlink="http://www.w3.org/1999/xlink" width="200" height="200"><path d="M511.36862 388.949476c-58.97109 0-104.06717 45.096081-104.06717 104.06717s45.096081 104.06717 104.06717 104.06717 104.06717-45.095058 104.06717-104.06717S570.33971 388.949476 511.36862 388.949476zM511.36862 666.461931c-97.129154 0-173.445284-76.31613-173.445284-173.445284 0-97.129154 76.31613-173.445284 173.445284-173.445284s173.445284 76.31613 173.445284 173.445284C684.813904 590.145801 608.497775 666.461931 511.36862 666.461931zM511.36862 232.848209c-173.445284 0-322.608535 107.536178-381.579625 260.168438 58.97109 152.632259 208.134341 260.168438 381.579625 260.168438s322.608535-107.536178 381.579625-260.168438C833.977155 340.384387 684.813904 232.848209 511.36862 232.848209z" fill="#CCCCCC" p-id="1455"></path></svg>