<?xml version="1.0" standalone="no"?><!DOCTYPE svg PUBLIC "-//W3C//DTD SVG 1.1//EN" "http://www.w3.org/Graphics/SVG/1.1/DTD/svg11.dtd"><svg t="1691674361380" class="icon" viewBox="0 0 1024 1024" version="1.1" xmlns="http://www.w3.org/2000/svg" p-id="5025" xmlns:xlink="http://www.w3.org/1999/xlink" width="200" height="200"><path d="M865.28 489.984C771.584 364.032 646.144 294.4 512 294.4c-134.144 0-259.584 69.632-353.28 195.584-9.728 12.8-9.728 30.72 0 43.52C252.416 659.456 377.856 729.088 512 729.088c134.144 0 259.584-69.632 353.28-195.584 9.728-12.8 9.728-30.208 0-43.52zM512 656.896c-78.336 0-142.336-65.024-142.336-144.896 0-79.872 64-144.896 142.336-144.896S654.336 432.128 654.336 512c0 79.872-64 144.896-142.336 144.896z" p-id="5026"></path></svg>