<?xml version="1.0" standalone="no"?><!DOCTYPE svg PUBLIC "-//W3C//DTD SVG 1.1//EN" "http://www.w3.org/Graphics/SVG/1.1/DTD/svg11.dtd"><svg t="1690699941859" class="icon" viewBox="0 0 1024 1024" version="1.1" xmlns="http://www.w3.org/2000/svg" p-id="3862" xmlns:xlink="http://www.w3.org/1999/xlink" width="200" height="200"><path d="M694.4 512c0 100.8-81.6 182.4-182.4 182.4v108.8c190.4 0 376-121.6 438.4-291.2-64-169.6-248-291.2-438.4-291.2v108.8c100.8 0 182.4 81.6 182.4 182.4z" fill="#D0D2D7" p-id="3863"></path><path d="M620.8 512c0-60.8-49.6-108.8-108.8-108.8v219.2c60.8-1.6 108.8-49.6 108.8-110.4z" fill="#D0D2D7" p-id="3864"></path><path d="M512 694.4c-100.8 0-182.4-81.6-182.4-182.4S411.2 329.6 512 329.6v-108.8C321.6 220.8 137.6 342.4 75.2 512 137.6 681.6 321.6 803.2 512 803.2v-108.8z" fill="#2A344B" p-id="3865"></path><path d="M403.2 512c0 60.8 49.6 108.8 108.8 108.8V403.2c-60.8 0-108.8 48-108.8 108.8z" fill="#2A344B" p-id="3866"></path></svg>