<?xml version="1.0" standalone="no"?><!DOCTYPE svg PUBLIC "-//W3C//DTD SVG 1.1//EN" "http://www.w3.org/Graphics/SVG/1.1/DTD/svg11.dtd"><svg t="1690782626039" class="icon" viewBox="0 0 1024 1024" version="1.1" xmlns="http://www.w3.org/2000/svg" p-id="10889" xmlns:xlink="http://www.w3.org/1999/xlink" width="200" height="200"><path d="M898.8 655.5L656.1 411.4c-13.7-13.8-36-13.8-49.7 0-13.7 13.8-13.7 36.2 0 50l190.2 191.3c-109.9 10.4-357.4 15.9-499.7-120.6-130-124.6-110.6-427.3-110.3-430.3C188 82.3 173.4 65.4 154 64c-19.5-1.3-36.2 13.3-37.6 32.8-1 13.8-22 338.9 132 486.5 125.2 120 311.8 145.4 446.9 145.4 31.4 0 59.9-1.4 84.3-3.2L606.4 899.7c-13.7 13.8-13.7 36.2 0 50 6.9 6.9 15.9 10.3 24.9 10.3 9 0 18-3.5 24.9-10.3l242.7-244.1c13.6-13.9 13.6-36.2-0.1-50.1z" p-id="10890"></path></svg>